<?xml version="1.0" encoding="UTF-8"?>
<!DOCTYPE svg PUBLIC "-//W3C//DTD SVG 1.1//EN" "http://www.w3.org/Graphics/SVG/1.1/DTD/svg11.dtd">
<!-- Creator: CorelDRAW X7 -->
<svg xmlns="http://www.w3.org/2000/svg" xml:space="preserve" width="210mm" height="297mm" version="1.1" style="shape-rendering:geometricPrecision; text-rendering:geometricPrecision; image-rendering:optimizeQuality; fill-rule:evenodd; clip-rule:evenodd"
viewBox="0 0 21000 29700"
 xmlns:xlink="http://www.w3.org/1999/xlink">
 <defs>
  <style type="text/css">
   <![CDATA[
    .str1 {stroke:#AE2220;stroke-width:35.28}
    .str0 {stroke:#2B2A29;stroke-width:7.62}
    .fil3 {fill:none}
    .fil1 {fill:#FEFEFE}
    .fil0 {fill:#55828E}
    .fil2 {fill:#C02222;fill-rule:nonzero}
    .fil4 {fill:#AE2220;fill-rule:nonzero}
   ]]>
  </style>
 </defs>
 <g id="Слой_x0020_1">
  <metadata id="CorelCorpID_0Corel-Layer"/>
  <g id="_2201111639696">
   <g>
    <polygon class="fil0" points="9920,12340 920,12340 920,7340 9920,7340 "/>
    <path class="fil1" d="M6670 12340c1108,-828 2289,-1525 2818,-1276l339 159 93 71 0 -1135c-203,-137 -401,-241 -517,-317 -2043,-1318 -2697,-997 -2478,-2502l-2624 0c-629,981 -1173,1851 -2715,1517 -309,-67 -532,-281 -666,-450l0 1267c140,117 308,240 508,371 699,460 1522,711 1864,1214 243,356 377,720 415,1081l2963 0z"/>
   </g>
   <g>
    <path class="fil2" d="M2639 9874l-79 424c-11,62 -17,101 -17,120 0,17 4,37 12,58 -61,32 -115,49 -163,49 -31,0 -46,-14 -46,-41 0,-14 6,-54 18,-121l92 -506c-148,-37 -223,-91 -223,-163 0,-15 3,-33 9,-57 64,58 140,99 230,125l62 -335c10,-54 15,-93 15,-116 0,-23 -8,-44 -22,-62 78,-32 133,-49 163,-49 37,0 55,24 55,70 0,11 -10,67 -29,169l-61 340c169,0 307,-45 415,-137 107,-91 160,-209 160,-351 0,-79 -28,-142 -84,-191 -56,-47 -130,-71 -222,-71 -275,0 -495,126 -661,378 -15,-40 -22,-71 -22,-93 0,-98 80,-188 239,-273 158,-84 330,-126 515,-126 281,0 421,114 421,341 0,165 -73,310 -218,434 -146,123 -316,185 -511,185l-48 -1zm1056 105c0,189 73,283 218,283 127,0 266,-66 418,-198 152,-131 289,-305 411,-521l75 45c-115,236 -265,431 -449,586 -184,154 -358,232 -523,232 -106,0 -189,-38 -251,-113 -61,-74 -92,-176 -92,-306 0,-186 56,-346 167,-479 111,-133 245,-199 402,-199 76,0 137,21 182,63 45,42 68,98 68,168 0,115 -63,217 -189,306 -127,89 -272,133 -437,133zm7 -92c123,-7 228,-46 316,-116 88,-70 132,-152 132,-244 0,-82 -34,-123 -101,-123 -80,0 -153,47 -221,141 -67,94 -109,208 -126,342zm1038 434l-64 358c-15,81 -22,151 -22,211 0,38 8,73 23,103 -59,22 -104,32 -136,32 -48,0 -73,-30 -73,-91 0,-47 10,-124 29,-230l257 -1419c-51,11 -93,17 -128,17 -51,0 -89,-13 -113,-40 -25,-27 -44,-77 -59,-149 43,31 108,47 196,47 108,0 213,-22 313,-66l-68 374c100,-106 203,-159 310,-159 94,0 171,39 233,116 63,78 94,175 94,291 0,181 -57,337 -172,469 -114,131 -250,197 -408,197 -85,0 -155,-21 -212,-61zm28 -149c59,76 132,114 218,114 103,0 191,-48 264,-143 72,-95 109,-211 109,-348 0,-98 -21,-178 -62,-240 -41,-61 -95,-91 -160,-91 -83,0 -172,51 -268,152l-101 556zm1951 -581c-133,255 -267,455 -403,599 -135,144 -257,216 -365,216 -66,0 -119,-24 -159,-71 -40,-47 -60,-109 -60,-185 0,-29 6,-76 18,-139l19 -106c29,-153 43,-261 43,-323 0,-36 -10,-66 -30,-90 76,-19 124,-29 144,-29 43,0 65,34 65,101 0,50 -9,121 -26,213l-34 189c-17,91 -26,150 -26,177 0,80 31,119 93,119 73,0 171,-67 293,-203 122,-135 240,-307 355,-515l73 47zm-784 -487l13 1c39,-2 95,-24 169,-65 74,-42 131,-84 173,-128 -26,90 -72,164 -137,224 -100,91 -168,137 -203,137 -23,0 -35,-16 -35,-47 0,-45 7,-86 20,-122zm1206 895c16,31 24,59 24,83 0,63 -48,133 -146,209 -97,76 -185,115 -265,115 -70,0 -128,-35 -172,-104 -44,-69 -67,-158 -67,-267 0,-121 29,-293 87,-517l41 -162 -149 0c-62,0 -112,9 -148,29 33,-68 62,-111 84,-129 22,-17 60,-26 114,-26l132 0 18 -66c27,-100 59,-168 97,-205 38,-37 94,-55 169,-55 9,0 23,0 42,2 -45,64 -93,172 -143,324l466 0c81,0 143,-11 186,-34 -14,66 -34,109 -58,129 -25,21 -70,31 -136,31l-495 0c-6,21 -11,37 -14,47 -71,266 -106,466 -106,601 0,150 49,225 147,225 50,0 106,-24 165,-71 60,-47 102,-100 127,-159zm880 -208c-75,171 -168,316 -278,435 -110,120 -205,180 -287,180 -62,0 -112,-31 -149,-92 -38,-60 -56,-142 -56,-243 0,-201 55,-379 167,-532 111,-153 240,-230 386,-230 88,0 184,30 288,91 15,-60 77,-90 186,-90 8,0 19,0 35,1 -34,56 -59,133 -77,230l-15 82c-17,91 -25,198 -25,321 0,141 30,211 90,211 63,0 150,-58 260,-174 110,-116 218,-264 324,-444l69 52c-109,213 -233,390 -373,532 -139,142 -259,213 -360,213 -127,0 -190,-116 -190,-348 0,-48 2,-113 5,-195zm42 -231c-124,-88 -226,-132 -308,-132 -88,0 -165,59 -230,177 -64,118 -96,259 -96,421 0,130 38,195 116,195 84,0 244,-202 481,-607 4,-5 16,-23 37,-54z"/>
    <path class="fil2" d="M4894 10578l42 0 0 162 90 -162 44 0 0 244 -42 0 0 -159 -89 159 -45 0 0 -244zm222 244l0 -244 45 0 0 96 88 0 0 -96 44 0 0 244 -44 0 0 -107 -88 0 0 107 -45 0zm274 0l0 -203 -66 0 0 -41 176 0 0 41 -65 0 0 203 -45 0zm139 0l0 -244 165 0 0 41 -120 0 0 54 111 0 0 41 -111 0 0 67 124 0 0 41 -169 0zm207 0l0 -244 72 0c27,0 45,1 53,4 13,3 23,11 32,24 8,12 13,28 13,47 0,15 -3,27 -8,38 -5,10 -11,18 -19,24 -7,5 -15,9 -23,11 -10,3 -26,4 -46,4l-29 0 0 92 -45 0zm45 -203l0 69 24 0c18,0 30,-1 35,-3 6,-3 11,-7 14,-12 4,-6 6,-12 6,-19 0,-9 -3,-17 -8,-22 -4,-6 -10,-10 -18,-11 -5,-1 -16,-2 -32,-2l-21 0zm162 -41l45 0 0 97 60 0c28,0 49,8 61,22 13,15 19,32 19,52 0,17 -3,31 -11,43 -8,11 -16,19 -26,23 -10,4 -24,7 -43,7l-105 0 0 -244zm45 203l44 0c14,0 24,-1 29,-3 6,-1 10,-4 15,-10 4,-5 6,-12 6,-19 0,-12 -4,-20 -11,-25 -7,-5 -20,-8 -37,-8l-46 0 0 65zm177 41l0 -244 165 0 0 41 -120 0 0 54 111 0 0 41 -111 0 0 67 124 0 0 41 -169 0zm207 0l0 -244 72 0c27,0 45,1 53,4 13,3 23,11 32,24 9,12 13,28 13,47 0,15 -3,27 -8,38 -5,10 -11,18 -18,24 -8,5 -16,9 -24,11 -10,3 -26,4 -46,4l-29 0 0 92 -45 0zm45 -203l0 69 24 0c18,0 30,-1 36,-3 6,-3 10,-7 14,-12 3,-6 5,-12 5,-19 0,-9 -3,-17 -7,-22 -5,-6 -11,-10 -18,-11 -6,-1 -17,-2 -33,-2l-21 0zm162 203l0 -244 45 0 0 96 87 0 0 -96 45 0 0 244 -45 0 0 -107 -87 0 0 107 -45 0zm225 -244l44 0 0 97 60 0c16,0 30,3 41,7 11,5 21,14 28,26 8,12 12,26 12,41 0,17 -4,31 -12,43 -8,12 -17,20 -26,24 -10,4 -24,6 -43,6l-104 0 0 -244zm44 203l44 0c14,0 24,-1 29,-3 6,-1 11,-4 15,-10 4,-5 6,-12 6,-19 0,-11 -3,-19 -10,-25 -7,-5 -20,-8 -38,-8l-46 0 0 65zm167 -203l44 0 0 244 -44 0 0 -244zm91 0l42 0 0 162 90 -162 45 0 0 244 -42 0 0 -159 -90 159 -45 0 0 -244zm115 -61l21 0c-1,15 -6,27 -14,36 -9,8 -20,13 -33,13 -14,0 -24,-5 -33,-13 -8,-9 -13,-21 -14,-36l20 0c1,8 4,14 8,18 4,4 11,6 19,6 8,0 14,-2 19,-6 4,-4 7,-10 7,-18zm244 305l0 -203 -66 0 0 -41 176 0 0 41 -66 0 0 203 -44 0zm139 0l0 -244 164 0 0 41 -119 0 0 54 111 0 0 41 -111 0 0 67 124 0 0 41 -169 0zm207 -244l45 0 0 104c10,-1 17,-4 20,-9 4,-4 9,-17 17,-38 9,-26 18,-42 28,-49 9,-6 24,-9 45,-9 1,0 3,0 6,-1l0 37 -6 0c-9,0 -16,1 -20,3 -5,3 -8,7 -11,12 -2,5 -6,15 -11,31 -3,9 -6,16 -9,21 -3,6 -9,11 -17,16 10,3 18,9 25,19 6,9 13,23 21,40l30 67 -52 0 -27 -63c0,-1 -1,-3 -2,-6 -1,0 -3,-4 -6,-11 -6,-12 -10,-19 -14,-22 -4,-3 -9,-5 -17,-5l0 107 -45 0 0 -244zm327 154l43 15c-7,27 -18,46 -33,59 -16,13 -35,20 -59,20 -30,0 -54,-11 -73,-33 -19,-23 -28,-53 -28,-91 0,-41 9,-72 28,-94 19,-23 44,-34 76,-34 27,0 49,9 66,26 10,11 17,26 22,45l-44 12c-3,-13 -8,-23 -16,-30 -9,-7 -19,-11 -31,-11 -16,0 -29,6 -40,19 -10,13 -15,34 -15,63 0,31 5,53 15,66 10,13 23,20 39,20 12,0 23,-4 31,-13 9,-8 15,-21 19,-39zm124 90l0 -203 -66 0 0 -41 176 0 0 41 -66 0 0 203 -44 0zm140 -244l42 0 0 162 89 -162 45 0 0 244 -42 0 0 -159 -90 159 -44 0 0 -244zm238 0l155 0 0 244 -45 0 0 -203 -66 0 0 104c0,30 -1,51 -3,63 -2,11 -6,21 -13,27 -7,7 -18,10 -33,10 -6,0 -15,0 -29,-2l0 -38 10 1c9,0 16,-2 19,-5 3,-2 5,-9 5,-20l0 -42 0 -139zm202 0l45 0 0 97 60 0c28,0 49,8 61,22 13,15 19,32 19,52 0,17 -4,31 -11,43 -8,11 -17,19 -27,23 -9,4 -24,7 -42,7l-105 0 0 -244zm45 203l43 0c15,0 24,-1 30,-3 5,-1 10,-4 14,-10 5,-5 7,-12 7,-19 0,-12 -4,-20 -11,-25 -7,-5 -20,-8 -38,-8l-45 0 0 65z"/>
   </g>
  </g>
  <polygon class="fil1 str0" points="11405,7340 20405,7340 20405,12340 11405,12340 "/>
  <path class="fil3 str1" d="M15905 7720c198,0 358,178 358,398 0,220 -160,398 -358,398 -198,0 -358,-178 -358,-398 0,-220 160,-398 358,-398z"/>
  <path class="fil2" d="M13715 9446l0 -187 50 0 31 128 30 -128 51 0 0 187 -32 0 0 -147 -33 147 -33 0 -33 -147 0 147 -31 0zm196 0l0 -187 124 0 0 32 -90 0 0 41 84 0 0 32 -84 0 0 51 94 0 0 31 -128 0zm157 -187l126 0 0 32 -92 0 0 43 45 0c13,0 23,2 32,5 8,3 15,10 21,19 6,9 9,20 9,32 0,13 -3,24 -9,33 -6,9 -13,15 -20,18 -8,3 -19,5 -33,5l-79 0 0 -187zm34 156l33 0c11,0 18,-1 22,-2 5,-1 8,-4 12,-8 3,-4 4,-9 4,-15 0,-9 -3,-15 -8,-19 -6,-4 -15,-6 -28,-6l-35 0 0 50zm134 31l0 -187 125 0 0 32 -91 0 0 41 85 0 0 32 -85 0 0 51 94 0 0 31 -128 0zm169 -187l118 0 0 187 -34 0 0 -155 -51 0 0 80c0,22 0,38 -2,47 -1,10 -5,17 -10,22 -5,5 -13,7 -25,7 -4,0 -11,0 -21,-1l0 -29 7 0c7,0 12,-1 14,-3 3,-2 4,-8 4,-16l0 -32 0 -107zm153 0l34 0 0 75 46 0c21,0 37,5 46,17 10,11 15,24 15,40 0,12 -3,23 -9,32 -6,9 -12,15 -20,18 -7,3 -18,5 -32,5l-80 0 0 -187zm34 156l33 0c11,0 19,-1 23,-2 4,-1 8,-4 11,-8 3,-4 5,-9 5,-15 0,-8 -3,-15 -9,-19 -5,-4 -15,-6 -28,-6l-35 0 0 50zm135 31l0 -187 34 0 0 74 66 0 0 -74 34 0 0 187 -34 0 0 -82 -66 0 0 82 -34 0zm170 -187l34 0 0 75 46 0c12,0 22,2 30,5 9,4 16,10 22,20 6,9 9,20 9,32 0,12 -3,23 -9,32 -6,10 -13,16 -20,19 -8,3 -18,4 -32,4l-80 0 0 -187zm34 156l33 0c11,0 18,-1 22,-2 5,-1 8,-4 12,-8 3,-4 4,-9 4,-15 0,-8 -2,-14 -8,-19 -5,-4 -14,-6 -28,-6l-35 0 0 50zm126 -156l34 0 0 187 -34 0 0 -187zm69 187l0 -187 125 0 0 32 -91 0 0 41 85 0 0 32 -85 0 0 51 94 0 0 31 -128 0zm223 -187l32 0 0 125 68 -125 34 0 0 187 -32 0 0 -122 -68 122 -34 0 0 -187zm234 0l134 0 0 187 -34 0 0 -155 -66 0 0 155 -34 0 0 -187zm161 95c0,-19 3,-35 8,-48 4,-10 9,-18 16,-26 6,-7 14,-13 22,-17 10,-5 22,-7 36,-7 25,0 44,9 59,26 15,17 23,40 23,71 0,30 -8,54 -23,71 -14,17 -34,25 -59,25 -25,0 -45,-8 -59,-25 -15,-17 -23,-40 -23,-70zm35 -1c0,21 5,37 14,48 8,11 20,16 33,16 14,0 25,-5 33,-16 9,-11 13,-27 13,-49 0,-21 -4,-37 -12,-48 -9,-10 -20,-16 -34,-16 -14,0 -25,6 -34,16 -8,11 -13,27 -13,49zm155 93l0 -187 55 0c20,0 34,1 40,3 10,3 18,9 24,18 7,10 10,22 10,37 0,11 -2,21 -6,29 -3,7 -8,14 -14,18 -6,5 -12,7 -18,9 -8,2 -19,3 -35,3l-22 0 0 70 -34 0zm34 -155l0 53 19 0c13,0 22,-1 26,-3 5,-2 9,-5 11,-9 3,-4 4,-9 4,-15 0,-7 -2,-12 -5,-17 -4,-4 -9,-7 -14,-8 -4,-1 -12,-1 -25,-1l-16 0zm158 155l0 -155 -50 0 0 -32 133 0 0 32 -49 0 0 155 -34 0zm106 -187l34 0 0 75 45 0c22,0 37,5 47,17 9,11 14,24 14,40 0,12 -3,23 -9,32 -5,9 -12,15 -19,18 -8,3 -19,5 -33,5l-79 0 0 -187zm34 156l33 0c11,0 18,-1 22,-2 4,-1 8,-4 11,-8 3,-4 5,-9 5,-15 0,-8 -3,-15 -8,-19 -6,-4 -15,-6 -29,-6l-34 0 0 50zm134 31l0 -187 125 0 0 32 -91 0 0 41 84 0 0 32 -84 0 0 51 94 0 0 31 -128 0zm157 0l0 -187 54 0c21,0 34,1 41,3 9,3 17,9 24,18 6,10 10,22 10,37 0,11 -2,21 -6,29 -4,7 -9,14 -14,18 -6,5 -12,7 -18,9 -8,2 -20,3 -35,3l-22 0 0 70 -34 0zm34 -155l0 53 18 0c14,0 23,-1 27,-3 5,-2 8,-5 11,-9 2,-4 4,-9 4,-15 0,-7 -2,-12 -6,-17 -3,-4 -8,-7 -13,-8 -4,-1 -13,-1 -25,-1l-16 0zm123 155l0 -187 34 0 0 74 66 0 0 -74 34 0 0 187 -34 0 0 -82 -66 0 0 82 -34 0zm170 -187l34 0 0 75 45 0c12,0 23,2 31,5 9,4 16,10 22,20 6,9 8,20 8,32 0,12 -3,23 -9,32 -6,10 -12,16 -19,19 -8,3 -18,4 -33,4l-79 0 0 -187zm34 156l33 0c11,0 18,-1 22,-2 4,-1 8,-4 11,-8 4,-4 5,-9 5,-15 0,-8 -2,-14 -8,-19 -5,-4 -15,-6 -28,-6l-35 0 0 50zm126 -156l34 0 0 187 -34 0 0 -187zm69 187l0 -187 125 0 0 32 -91 0 0 41 85 0 0 32 -85 0 0 51 94 0 0 31 -128 0zm260 0l0 -155 -50 0 0 -32 134 0 0 32 -50 0 0 155 -34 0zm106 -187l34 0 0 80c8,-1 13,-3 16,-7 2,-3 6,-13 12,-29 7,-20 14,-33 21,-38 7,-4 19,-7 34,-7 1,0 3,0 5,0l0 28 -5 0c-7,0 -12,1 -15,3 -3,1 -6,4 -8,8 -2,4 -5,12 -9,24 -2,7 -4,12 -6,17 -3,4 -7,8 -13,12 8,2 14,7 19,14 5,7 10,18 16,31l23 51 -40 0 -20 -48c0,-1 -1,-2 -2,-4 0,-1 -2,-4 -4,-9 -5,-9 -8,-15 -11,-17 -3,-3 -7,-4 -13,-4l0 82 -34 0 0 -187zm295 187l-37 0 -15 -42 -67 0 -14 42 -36 0 65 -187 36 0 68 187zm-63 -74l-23 -69 -23 69 46 0zm81 74l0 -187 34 0 0 74 66 0 0 -74 34 0 0 187 -34 0 0 -82 -66 0 0 82 -34 0zm170 -187l32 0 0 125 68 -125 34 0 0 187 -32 0 0 -122 -68 122 -34 0 0 -187zm-3359 457l0 22 -33 0 0 -22c-27,-1 -46,-9 -57,-22 -11,-14 -16,-31 -16,-51 0,-22 5,-39 17,-52 11,-13 30,-20 56,-22l0 -18 33 0 0 18c27,2 46,9 57,22 11,14 17,31 17,52 0,20 -6,37 -17,51 -11,13 -30,21 -57,22zm0 -32c9,0 17,-1 23,-5 7,-3 11,-7 14,-13 2,-6 4,-14 4,-25 0,-27 -14,-40 -41,-40l0 83zm-33 0l0 -83c-14,0 -25,3 -31,11 -6,7 -10,17 -10,32 0,27 14,40 41,40zm108 -133l38 0 39 97 34 -97 35 0 -57 142c-6,15 -12,27 -19,35 -6,8 -14,12 -25,12 -10,0 -17,-1 -23,-2l0 -28c5,0 9,0 13,0 8,0 14,-1 17,-5 3,-3 7,-10 10,-20l-62 -134zm163 187l0 -187 55 0c20,0 34,1 40,3 10,2 18,9 24,18 7,9 10,21 10,36 0,12 -2,21 -6,29 -3,8 -8,14 -14,19 -6,4 -12,7 -18,9 -8,1 -19,2 -35,2l-22 0 0 71 -34 0zm34 -156l0 53 19 0c13,0 22,-1 26,-2 5,-2 9,-5 11,-10 3,-4 4,-9 4,-14 0,-7 -2,-13 -5,-17 -4,-4 -9,-7 -14,-8 -4,-1 -12,-2 -25,-2l-16 0zm123 156l0 -187 34 0 0 73 66 0 0 -73 34 0 0 187 -34 0 0 -82 -66 0 0 82 -34 0zm170 -187l32 0 0 124 68 -124 34 0 0 187 -32 0 0 -122 -68 122 -34 0 0 -187zm206 187l0 -156 -50 0 0 -31 134 0 0 31 -50 0 0 156 -34 0zm89 -187l38 0 39 97 33 -97 36 0 -57 142c-6,15 -12,27 -19,35 -6,8 -15,12 -25,12 -10,0 -18,-1 -23,-2l0 -28c5,0 9,0 13,0 8,0 13,-1 17,-5 3,-3 6,-10 10,-20l-62 -134zm163 187l0 -187 54 0c21,0 35,1 41,3 9,2 18,9 24,18 7,9 10,21 10,36 0,12 -2,21 -6,29 -4,8 -8,14 -14,19 -6,4 -12,7 -18,9 -8,1 -20,2 -35,2l-22 0 0 71 -34 0zm34 -156l0 53 19 0c13,0 22,-1 26,-2 5,-2 8,-5 11,-10 3,-4 4,-9 4,-14 0,-7 -2,-13 -6,-17 -3,-4 -8,-7 -13,-8 -4,-1 -12,-2 -25,-2l-16 0zm254 156l-37 0 -15 -43 -67 0 -14 43 -36 0 65 -187 36 0 68 187zm-63 -74l-23 -70 -23 70 46 0zm160 -113l116 0 0 155 15 0 0 72 -29 0 0 -40 -106 0 0 40 -28 0 0 -72 14 0c7,-16 12,-34 14,-55 2,-21 4,-48 4,-80l0 -20zm32 31c0,57 -5,98 -14,124l64 0 0 -124 -50 0zm133 -31l118 0 0 187 -34 0 0 -156 -50 0 0 80c0,23 -1,39 -2,48 -2,9 -5,16 -10,21 -6,5 -14,8 -25,8 -4,0 -12,-1 -22,-1l0 -30 7 0c8,0 12,-1 15,-3 2,-2 3,-7 3,-15l0 -32 0 -107zm254 187l0 -78 -7 0c-11,0 -18,1 -23,5 -4,4 -12,14 -22,32l-25 41 -40 0 20 -37c8,-14 15,-24 19,-30 5,-6 11,-11 19,-16 -16,-2 -27,-9 -34,-18 -7,-9 -11,-21 -11,-34 0,-11 3,-21 8,-30 5,-9 12,-15 20,-18 9,-3 21,-4 38,-4l72 0 0 187 -34 0zm0 -156l-27 0c-13,0 -22,1 -26,1 -5,1 -8,3 -11,7 -3,4 -5,9 -5,16 0,6 2,11 5,15 3,4 6,7 11,7 4,1 14,2 28,2l25 0 0 -48zm134 -31l34 0 0 155 49 0 0 -155 33 0 0 155 51 0 0 -155 33 0 1 187 -201 0 0 -187zm273 187l0 -156 -50 0 0 -31 134 0 0 31 -50 0 0 156 -34 0zm93 -93c0,-19 3,-35 8,-48 4,-9 9,-18 16,-25 6,-8 13,-13 21,-17 11,-5 23,-7 37,-7 24,0 44,8 59,25 15,17 22,41 22,71 0,31 -7,54 -22,71 -15,17 -34,26 -59,26 -25,0 -45,-9 -60,-26 -14,-17 -22,-40 -22,-70zm35 -1c0,21 5,37 13,48 9,11 20,17 34,17 13,0 25,-6 33,-17 9,-10 13,-27 13,-48 0,-22 -4,-38 -12,-48 -9,-11 -20,-16 -34,-16 -14,0 -25,5 -34,16 -9,11 -13,27 -13,48zm155 94l0 -187 54 0c21,0 34,1 41,3 9,2 17,9 24,18 6,9 10,21 10,36 0,12 -2,21 -6,29 -4,8 -8,14 -14,19 -6,4 -12,7 -18,9 -8,1 -20,2 -35,2l-22 0 0 71 -34 0zm34 -156l0 53 18 0c14,0 23,-1 27,-2 5,-2 8,-5 11,-10 2,-4 4,-9 4,-14 0,-7 -2,-13 -6,-17 -3,-4 -8,-7 -13,-8 -4,-1 -13,-2 -25,-2l-16 0zm-2529 260l34 0 0 80c8,-1 13,-3 16,-6 2,-4 7,-14 12,-30 7,-20 14,-32 21,-37 7,-5 19,-8 34,-8 1,0 3,0 5,0l0 28 -4 0c-7,0 -13,1 -16,3 -3,2 -6,5 -8,9 -2,3 -4,11 -8,24 -2,6 -5,12 -7,16 -2,4 -7,8 -13,12 8,2 14,7 19,14 5,8 10,18 16,31l23 51 -40 0 -20 -48c0,-1 -1,-2 -2,-4 0,-1 -2,-4 -4,-9 -4,-9 -8,-15 -11,-17 -3,-2 -7,-3 -13,-4l0 82 -34 0 0 -187zm295 187l-37 0 -15 -42 -67 0 -14 42 -36 0 66 -187 36 0 67 187zm-63 -74l-23 -69 -23 69 46 0zm81 74l0 -187 54 0c21,0 34,1 41,3 9,3 17,9 24,19 6,9 10,21 10,36 0,11 -2,21 -6,29 -4,8 -8,14 -14,18 -6,5 -12,8 -18,9 -8,2 -20,3 -35,3l-22 0 0 70 -34 0zm34 -155l0 53 18 0c14,0 23,-1 27,-3 5,-2 8,-5 11,-9 2,-4 4,-9 4,-15 0,-6 -2,-12 -6,-16 -3,-5 -8,-8 -13,-9 -4,-1 -13,-1 -25,-1l-16 0zm123 155l0 -187 34 0 0 74 66 0 0 -74 34 0 0 187 -34 0 0 -81 -66 0 0 81 -34 0zm170 -187l31 0 0 125 69 -125 33 0 0 187 -31 0 0 -122 -68 122 -34 0 0 -187zm192 51l-33 -8c7,-31 27,-46 61,-46 19,0 34,5 44,15 10,9 16,21 16,34 0,9 -3,17 -7,24 -5,7 -12,13 -21,19 11,4 20,10 25,18 6,8 8,17 8,29 0,16 -5,29 -16,39 -11,10 -27,15 -48,15 -18,0 -32,-3 -42,-9 -10,-7 -18,-19 -23,-37l31 -11c3,11 8,18 13,22 5,3 12,5 20,5 10,0 18,-3 23,-8 5,-5 7,-11 7,-18 0,-7 -2,-14 -8,-18 -5,-5 -14,-7 -25,-7l-8 0 0 -28 4 0c11,0 19,-3 24,-8 6,-5 8,-12 8,-21 0,-7 -2,-12 -6,-17 -5,-5 -11,-7 -20,-7 -14,0 -23,8 -27,23zm124 -51l34 0 0 75 46 0c12,0 22,2 30,6 9,3 16,10 22,19 6,9 9,20 9,32 0,13 -3,24 -9,33 -6,9 -13,15 -20,18 -8,3 -18,4 -32,4l-80 0 0 -187zm34 156l33 0c11,0 18,-1 22,-2 5,-1 8,-4 12,-8 3,-4 4,-9 4,-14 0,-9 -2,-15 -8,-19 -5,-4 -14,-6 -28,-6l-35 0 0 49zm126 -156l34 0 0 187 -34 0 0 -187zm148 0l116 0 0 156 15 0 0 72 -28 0 0 -41 -106 0 0 41 -28 0 0 -72 14 0c7,-16 12,-35 14,-56 2,-21 3,-48 3,-80l0 -20zm32 32c0,57 -4,98 -13,124l63 0 0 -124 -50 0zm134 -32l118 0 0 187 -34 0 0 -155 -51 0 0 80c0,23 0,39 -2,48 -1,9 -5,16 -10,21 -5,5 -13,7 -25,7 -4,0 -11,0 -21,-1l0 -29 7 0c7,0 12,-1 14,-3 3,-2 4,-7 4,-16l0 -32 0 -107zm253 187l0 -78 -7 0c-10,0 -18,2 -22,6 -5,3 -12,14 -23,32l-24 40 -41 0 21 -36c8,-15 14,-25 19,-31 5,-5 11,-11 18,-15 -15,-3 -27,-9 -34,-18 -7,-10 -10,-21 -10,-34 0,-11 2,-22 8,-30 5,-9 12,-15 20,-18 8,-3 21,-5 38,-5l71 0 0 187 -34 0zm0 -155l-26 0c-14,0 -22,0 -27,1 -4,1 -8,3 -11,7 -3,4 -4,9 -4,15 0,7 1,12 4,16 3,4 7,6 11,7 5,1 14,1 28,1l25 0 0 -47zm134 -32l34 0 0 156 49 0 0 -156 34 0 0 156 50 0 0 -156 34 0 0 187 -201 0 0 -187zm274 187l0 -155 -50 0 0 -32 134 0 0 32 -50 0 0 155 -34 0zm93 -92c0,-19 2,-35 7,-48 4,-9 10,-18 16,-26 7,-7 14,-13 22,-16 10,-5 22,-8 36,-8 25,0 45,9 60,26 14,17 22,41 22,71 0,30 -7,54 -22,71 -15,17 -35,25 -59,25 -25,0 -45,-8 -60,-25 -15,-17 -22,-40 -22,-70zm35 -1c0,21 4,37 13,48 9,11 20,16 33,16 14,0 25,-5 34,-16 8,-11 13,-27 13,-49 0,-21 -4,-37 -13,-48 -8,-10 -20,-15 -34,-15 -14,0 -25,5 -33,16 -9,10 -13,26 -13,48zm154 93l0 -187 55 0c21,0 34,1 40,3 10,3 18,9 24,19 7,9 10,21 10,36 0,11 -2,21 -5,29 -4,8 -9,14 -15,18 -5,5 -11,8 -17,9 -8,2 -20,3 -36,3l-22 0 0 70 -34 0zm34 -155l0 53 19 0c13,0 22,-1 27,-3 4,-2 8,-5 10,-9 3,-4 4,-9 4,-15 0,-6 -2,-12 -5,-16 -4,-5 -8,-8 -14,-9 -4,-1 -12,-1 -24,-1l-17 0zm-2927 260l0 80c6,-1 10,-3 13,-7 3,-5 7,-14 12,-29 7,-19 14,-32 21,-37 7,-5 19,-8 35,-8 1,0 2,0 5,0l0 28 -5 0c-7,0 -12,1 -15,2 -4,2 -6,5 -8,9 -2,4 -5,12 -9,24 -2,7 -4,12 -7,16 -2,5 -6,9 -13,13 8,2 14,7 19,14 5,7 11,18 16,31l23 51 -40 0 -20 -48c0,-1 -1,-2 -2,-4 0,-2 -2,-5 -4,-9 -4,-9 -8,-15 -10,-17 -3,-3 -7,-4 -11,-4l0 82 -33 0 0 -82c-4,0 -7,1 -10,4 -3,2 -6,8 -10,17 -3,5 -4,8 -5,9 0,1 -1,2 -2,4l-20 48 -40 0 23 -51c6,-13 11,-23 16,-30 5,-8 12,-13 19,-15 -6,-4 -10,-8 -12,-12 -3,-5 -5,-10 -7,-17 -4,-12 -7,-20 -9,-24 -2,-4 -4,-7 -8,-8 -3,-2 -8,-3 -16,-3 0,0 -2,0 -4,0l0 -28c3,0 4,0 5,0 16,0 28,3 35,8 7,5 14,18 20,37 6,15 10,25 12,29 3,4 8,6 13,7l0 -80 33 0zm259 187l-37 0 -15 -43 -67 0 -14 43 -36 0 66 -187 35 0 68 187zm-63 -74l-23 -69 -23 69 46 0zm96 -113l118 0 0 187 -34 0 0 -155 -51 0 0 79c0,23 -1,39 -2,48 -1,9 -5,16 -10,21 -5,6 -14,8 -25,8 -4,0 -11,0 -22,-1l0 -29 8 0c7,0 12,-1 14,-3 3,-3 4,-8 4,-16l0 -32 0 -107zm153 0l34 0 0 78 27 0c2,-23 9,-42 22,-58 12,-15 31,-23 55,-23 23,0 41,8 55,25 14,17 21,40 21,71 0,20 -3,38 -9,52 -6,14 -15,25 -26,33 -10,8 -24,12 -40,12 -17,0 -30,-3 -40,-9 -9,-5 -18,-15 -25,-28 -8,-12 -12,-27 -13,-44l-27 0 0 78 -34 0 0 -187zm95 94c0,21 4,37 11,48 7,11 18,17 31,17 14,0 25,-6 31,-17 7,-11 11,-28 11,-50 0,-22 -4,-37 -12,-47 -8,-10 -18,-15 -31,-15 -12,0 -22,5 -30,15 -7,10 -11,26 -11,49zm171 -43l-33 -8c7,-31 27,-46 60,-46 20,0 35,5 45,14 10,10 15,21 15,34 0,9 -2,17 -7,24 -4,8 -11,14 -20,19 11,5 19,11 25,18 5,8 8,18 8,29 0,17 -5,30 -16,40 -11,10 -27,15 -49,15 -17,0 -31,-3 -41,-10 -10,-6 -18,-18 -23,-36l31 -11c3,11 7,18 13,21 5,4 12,5 19,5 11,0 19,-2 24,-7 5,-6 7,-11 7,-18 0,-8 -3,-14 -8,-19 -6,-4 -14,-7 -25,-7l-8 0 0 -28 4 0c10,0 18,-2 24,-8 5,-5 8,-12 8,-20 0,-7 -2,-13 -7,-17 -4,-5 -11,-7 -19,-7 -14,0 -23,7 -27,23zm123 -51l32 0 0 124 68 -124 34 0 0 187 -32 0 0 -122 -68 122 -34 0 0 -187zm235 0l31 0 0 124 69 -124 33 0 0 187 -31 0 0 -122 -68 122 -34 0 0 -187zm233 187l0 -187 55 0c20,0 34,1 40,3 10,3 18,9 24,18 7,10 10,22 10,37 0,11 -2,21 -6,28 -3,8 -8,14 -14,19 -6,4 -11,7 -17,9 -8,2 -20,2 -36,2l-22 0 0 71 -34 0zm34 -155l0 53 19 0c13,0 22,-1 27,-3 4,-2 8,-5 10,-9 3,-5 4,-9 4,-15 0,-7 -2,-12 -5,-17 -4,-4 -8,-7 -14,-8 -4,-1 -12,-1 -24,-1l-17 0zm103 -32l38 0 39 97 34 -97 35 0 -57 142c-6,15 -12,27 -19,35 -6,8 -14,12 -25,12 -10,0 -18,0 -23,-2l0 -28c5,0 9,1 13,1 8,0 13,-2 17,-5 3,-3 7,-10 10,-21l-62 -134zm166 0l118 0 0 187 -34 0 0 -155 -51 0 0 79c0,23 0,39 -2,48 -1,9 -4,16 -10,21 -5,6 -13,8 -25,8 -4,0 -11,0 -21,-1l0 -29 7 0c7,0 12,-1 15,-3 2,-3 3,-8 3,-16l0 -32 0 -107zm146 95c0,-19 3,-35 8,-48 4,-10 9,-18 15,-26 7,-7 14,-13 22,-17 11,-5 23,-7 36,-7 25,0 45,8 60,26 15,17 22,40 22,71 0,30 -7,54 -22,71 -15,17 -34,25 -59,25 -25,0 -45,-8 -60,-25 -15,-17 -22,-41 -22,-70zm35 -2c0,22 4,38 13,49 9,10 20,16 34,16 13,0 24,-6 33,-16 9,-11 13,-27 13,-49 0,-22 -4,-37 -13,-48 -8,-11 -19,-16 -33,-16 -14,0 -26,5 -34,16 -9,11 -13,27 -13,48zm155 94l0 -187 34 0 0 74 66 0 0 -74 34 0 0 187 -34 0 0 -82 -66 0 0 82 -34 0zm169 0l0 -187 34 0 0 74 67 0 0 -74 34 0 0 187 -34 0 0 -82 -67 0 0 82 -34 0zm171 -187l34 0 0 75 45 0c12,0 22,2 31,5 9,4 16,10 22,20 5,9 8,20 8,32 0,12 -3,23 -9,32 -6,9 -12,15 -20,18 -7,3 -18,5 -32,5l-79 0 0 -187zm34 156l33 0c11,0 18,-1 22,-2 4,-1 8,-4 11,-8 3,-4 5,-9 5,-15 0,-8 -3,-14 -8,-19 -5,-4 -15,-6 -29,-6l-34 0 0 50zm126 -156l34 0 0 187 -34 0 0 -187zm69 187l0 -187 125 0 0 32 -91 0 0 41 84 0 0 32 -84 0 0 50 94 0 0 32 -128 0zm223 -187l33 0 0 156 49 0 0 -156 34 0 0 156 50 0 0 -156 34 0 0 187 -200 0 0 -187zm273 187l0 -155 -50 0 0 -32 134 0 0 32 -50 0 0 155 -34 0z"/>
  <path class="fil2" d="M17233 10229c0,-19 3,-35 8,-48 4,-10 9,-18 15,-26 7,-7 14,-13 22,-17 11,-5 23,-7 36,-7 25,0 45,8 60,26 15,17 22,40 22,71 0,30 -7,54 -22,71 -15,17 -35,25 -59,25 -25,0 -45,-8 -60,-25 -15,-17 -22,-41 -22,-70zm35 -2c0,22 4,38 13,49 9,10 20,16 34,16 13,0 24,-6 33,-16 9,-11 13,-27 13,-49 0,-22 -4,-37 -13,-48 -8,-11 -19,-16 -33,-16 -14,0 -26,5 -34,16 -9,11 -13,27 -13,48zm155 94l0 -187 54 0c21,0 34,1 40,3 10,3 18,9 25,18 6,10 9,22 9,37 0,11 -1,21 -5,28 -4,8 -9,14 -14,19 -6,4 -12,7 -18,9 -8,2 -20,2 -35,2l-22 0 0 71 -34 0zm34 -155l0 53 18 0c14,0 23,-1 27,-3 5,-2 8,-5 11,-9 2,-5 3,-9 3,-15 0,-7 -1,-12 -5,-17 -4,-4 -8,-7 -14,-8 -4,-1 -12,-1 -24,-1l-16 0zm123 -32l34 0 0 75 46 0c12,0 22,2 30,5 9,4 16,10 22,20 6,9 9,20 9,32 0,12 -3,23 -9,32 -6,9 -13,15 -20,18 -8,3 -18,5 -32,5l-80 0 0 -187zm34 156l33 0c11,0 18,-1 22,-2 5,-1 8,-4 12,-8 3,-4 4,-9 4,-15 0,-8 -2,-14 -8,-19 -5,-4 -14,-6 -28,-6l-35 0 0 50zm126 -156l34 0 0 187 -34 0 0 -187zm-3797 410l32 11c-5,21 -13,36 -25,46 -11,10 -26,15 -44,15 -23,0 -41,-9 -55,-26 -15,-17 -22,-40 -22,-69 0,-31 7,-55 22,-73 14,-17 33,-25 57,-25 20,0 37,6 50,20 7,8 13,19 17,34l-34 9c-2,-10 -6,-17 -12,-23 -6,-5 -14,-8 -23,-8 -13,0 -23,5 -30,15 -8,10 -12,26 -12,48 0,24 4,40 11,50 8,10 18,15 30,15 9,0 17,-3 24,-9 6,-6 11,-16 14,-30zm94 69l0 -156 -50 0 0 -31 133 0 0 31 -49 0 0 156 -34 0zm93 -93c0,-19 2,-35 7,-48 4,-9 9,-18 16,-25 7,-8 14,-13 22,-17 10,-5 22,-7 36,-7 25,0 44,8 59,25 15,17 23,41 23,71 0,31 -8,54 -22,71 -15,17 -35,26 -60,26 -25,0 -45,-9 -59,-26 -15,-17 -22,-40 -22,-70zm35 -1c0,21 4,37 13,48 9,11 20,16 33,16 14,0 25,-5 34,-16 8,-11 13,-27 13,-49 0,-21 -5,-37 -13,-47 -9,-11 -20,-16 -34,-16 -14,0 -25,5 -34,16 -8,10 -12,26 -12,48zm160 -93l118 0 0 187 -34 0 0 -156 -50 0 0 80c0,23 -1,39 -2,48 -2,9 -5,16 -10,21 -6,5 -14,8 -25,8 -4,0 -12,-1 -22,-2l0 -29 7 0c8,0 12,-1 15,-3 2,-2 4,-7 4,-16l-1 -32 0 -106zm146 94c0,-19 3,-35 8,-48 4,-9 9,-18 16,-25 6,-8 14,-13 21,-17 11,-5 23,-7 37,-7 24,0 44,8 59,25 15,17 22,41 22,71 0,31 -7,54 -22,71 -14,17 -34,26 -59,26 -25,0 -45,-9 -60,-26 -14,-17 -22,-40 -22,-70zm35 -1c0,21 5,37 13,48 9,11 20,16 34,16 14,0 25,-5 33,-16 9,-11 13,-27 13,-49 0,-21 -4,-37 -12,-47 -9,-11 -20,-16 -34,-16 -14,0 -25,5 -34,16 -8,10 -13,26 -13,48zm155 -93l67 0c14,0 24,0 30,2 7,1 12,3 18,7 5,4 9,9 12,16 4,6 6,14 6,22 0,8 -2,17 -7,24 -4,7 -10,13 -17,16 10,4 18,9 24,17 5,8 8,18 8,28 0,9 -2,17 -5,25 -4,8 -9,15 -15,19 -6,5 -14,8 -23,9 -5,1 -19,1 -41,2l-57 0 0 -187zm34 31l0 43 22 0c13,0 22,0 25,-1 6,0 10,-3 14,-6 3,-4 5,-9 5,-15 0,-6 -2,-10 -5,-14 -3,-4 -7,-6 -12,-7 -4,0 -14,0 -29,0l-20 0zm0 74l0 50 31 0c13,0 20,0 24,-1 5,-1 9,-4 12,-8 3,-3 5,-9 5,-15 0,-6 -1,-11 -4,-15 -2,-4 -6,-6 -10,-8 -5,-2 -15,-3 -31,-3l-27 0zm123 -11c0,-19 2,-35 8,-48 3,-9 9,-18 15,-25 7,-8 14,-13 22,-17 10,-5 23,-7 36,-7 25,0 45,8 60,25 15,17 22,41 22,71 0,31 -7,54 -22,71 -15,17 -35,26 -59,26 -25,0 -45,-9 -60,-26 -15,-17 -22,-40 -22,-70zm35 -1c0,21 4,37 13,48 9,11 20,16 34,16 13,0 24,-5 33,-16 9,-11 13,-27 13,-49 0,-21 -4,-37 -13,-47 -8,-11 -19,-16 -33,-16 -14,0 -26,5 -34,16 -9,10 -13,26 -13,48zm155 94l0 -187 124 0 0 31 -91 0 0 42 85 0 0 31 -85 0 0 51 94 0 0 32 -127 0zm222 -187l32 0 0 124 68 -124 34 0 0 187 -32 0 0 -122 -68 122 -34 0 0 -187zm234 0l134 0 0 187 -34 0 0 -156 -66 0 0 156 -34 0 0 -187zm162 94c0,-19 2,-35 7,-48 4,-9 9,-18 16,-25 7,-8 14,-13 22,-17 10,-5 22,-7 36,-7 25,0 45,8 59,25 15,17 23,41 23,71 0,31 -8,54 -22,71 -15,17 -35,26 -60,26 -25,0 -44,-9 -59,-26 -15,-17 -22,-40 -22,-70zm35 -1c0,21 4,37 13,48 9,11 20,16 33,16 14,0 25,-5 34,-16 8,-11 13,-27 13,-49 0,-21 -5,-37 -13,-47 -8,-11 -20,-16 -34,-16 -14,0 -25,5 -34,16 -8,10 -12,26 -12,48zm262 25l33 11c-5,21 -14,36 -25,46 -12,10 -27,15 -45,15 -22,0 -41,-9 -55,-26 -15,-17 -22,-40 -22,-69 0,-31 8,-55 22,-73 14,-17 33,-25 57,-25 21,0 37,6 50,20 8,8 13,19 17,34l-33 9c-2,-10 -6,-17 -13,-23 -6,-5 -14,-8 -23,-8 -12,0 -22,5 -30,15 -8,10 -12,26 -12,48 0,24 4,40 12,50 7,10 17,15 30,15 9,0 16,-3 23,-9 6,-6 11,-16 14,-30zm94 69l0 -156 -50 0 0 -31 134 0 0 31 -50 0 0 156 -34 0zm106 0l0 -187 124 0 0 31 -90 0 0 42 84 0 0 31 -84 0 0 51 93 0 0 32 -127 0zm168 -187l118 0 0 187 -34 0 0 -156 -50 0 0 80c0,23 -1,39 -2,48 -2,9 -5,16 -11,21 -5,5 -13,8 -24,8 -4,0 -12,-1 -22,-2l0 -29 7 0c8,0 12,-1 15,-3 2,-2 3,-7 3,-16l0 -32 0 -106zm154 0l34 0 0 74 45 0c22,0 37,6 47,17 9,11 14,25 14,40 0,13 -3,24 -9,33 -5,9 -12,15 -20,18 -7,3 -18,5 -32,5l-79 0 0 -187zm34 155l33 0c10,0 18,0 22,-2 4,-1 8,-3 11,-7 3,-4 5,-9 5,-15 0,-9 -3,-15 -8,-19 -6,-4 -15,-6 -29,-6l-34 0 0 49zm134 32l0 -187 34 0 0 73 67 0 0 -73 34 0 0 187 -34 0 0 -82 -67 0 0 82 -34 0zm163 -93c0,-19 2,-35 7,-48 4,-9 10,-18 16,-25 7,-8 14,-13 22,-17 10,-5 22,-7 36,-7 25,0 45,8 60,25 14,17 22,41 22,71 0,31 -7,54 -22,71 -15,17 -35,26 -59,26 -25,0 -45,-9 -60,-26 -15,-17 -22,-40 -22,-70zm35 -1c0,21 4,37 13,48 9,11 20,16 33,16 14,0 25,-5 34,-16 8,-11 13,-27 13,-49 0,-21 -4,-37 -13,-47 -8,-11 -20,-16 -34,-16 -14,0 -25,5 -33,16 -9,10 -13,26 -13,48zm154 94l0 -187 125 0 0 31 -91 0 0 42 85 0 0 31 -85 0 0 51 94 0 0 32 -128 0zm223 -187l126 0 0 31 -92 0 0 43 45 0c13,0 23,2 32,5 8,4 15,10 21,19 6,10 9,20 9,33 0,12 -3,23 -9,32 -6,9 -13,15 -20,19 -8,3 -19,5 -33,5l-79 0 0 -187zm34 155l33 0c11,0 18,0 22,-2 5,-1 8,-3 11,-7 4,-4 5,-9 5,-15 0,-9 -3,-15 -8,-19 -6,-4 -15,-6 -28,-6l-35 0 0 49zm134 32l0 -187 125 0 0 31 -91 0 0 42 85 0 0 31 -85 0 0 51 94 0 0 32 -128 0zm169 -187l118 0 0 187 -34 0 0 -156 -51 0 0 80c0,23 0,39 -2,48 -1,9 -5,16 -10,21 -5,5 -13,8 -25,8 -4,0 -11,-1 -21,-2l0 -29 7 0c7,0 12,-1 14,-3 3,-2 4,-7 4,-16l0 -32 0 -106zm153 0l34 0 0 74 46 0c21,0 37,6 46,17 10,11 15,25 15,40 0,13 -3,24 -9,33 -6,9 -12,15 -20,18 -7,3 -18,5 -32,5l-80 0 0 -187zm34 155l33 0c11,0 19,0 23,-2 4,-1 8,-3 11,-7 3,-4 5,-9 5,-15 0,-9 -3,-15 -9,-19 -5,-4 -15,-6 -28,-6l-35 0 0 49zm135 32l0 -187 124 0 0 31 -90 0 0 42 84 0 0 31 -84 0 0 51 94 0 0 32 -128 0zm-4817 104l134 0 0 187 -34 0 0 -155 -66 0 0 155 -34 0 0 -187zm168 187l0 -187 55 0c20,0 34,1 40,3 10,3 18,9 24,18 7,10 10,22 10,37 0,11 -2,21 -5,29 -4,8 -9,14 -15,18 -5,5 -11,8 -17,9 -8,2 -20,3 -36,3l-22 0 0 70 -34 0zm34 -155l0 53 19 0c13,0 22,-1 27,-3 4,-2 8,-5 10,-9 3,-4 4,-9 4,-15 0,-6 -2,-12 -5,-17 -4,-4 -8,-7 -14,-8 -4,-1 -12,-1 -24,-1l-17 0zm123 155l0 -187 125 0 0 32 -91 0 0 41 84 0 0 32 -84 0 0 51 94 0 0 31 -128 0zm170 -187l117 0 0 156 14 0 0 72 -28 0 0 -41 -106 0 0 41 -28 0 0 -72 14 0c7,-16 12,-35 14,-56 2,-21 3,-48 3,-80l0 -20zm33 32c0,56 -5,98 -14,124l64 0 0 -124 -50 0zm133 -32l118 0 0 187 -34 0 0 -155 -51 0 0 80c0,23 0,39 -2,48 -1,9 -4,16 -10,21 -5,5 -13,7 -25,7 -4,0 -11,0 -21,-1l0 -29 7 0c7,0 12,-1 15,-3 2,-2 3,-8 3,-16l0 -32 0 -107zm146 95c0,-19 3,-35 8,-48 4,-10 9,-18 15,-26 7,-7 14,-13 22,-16 11,-5 23,-8 36,-8 25,0 45,9 60,26 15,17 22,41 22,71 0,30 -7,54 -22,71 -15,17 -34,25 -59,25 -25,0 -45,-8 -60,-25 -15,-17 -22,-40 -22,-70zm35 -1c0,21 4,37 13,48 9,11 20,16 34,16 13,0 24,-5 33,-16 9,-11 13,-27 13,-49 0,-21 -4,-37 -13,-48 -8,-10 -19,-16 -33,-16 -14,0 -26,6 -34,16 -9,11 -13,27 -13,49zm257 -94l0 80c6,-1 10,-3 13,-7 3,-4 7,-14 12,-29 7,-19 14,-32 21,-37 7,-5 18,-8 35,-8 0,0 2,0 5,0l0 28 -5 0c-7,0 -12,1 -16,3 -3,2 -5,5 -7,8 -2,4 -5,12 -9,25 -2,6 -5,11 -7,16 -2,4 -7,8 -13,12 8,2 14,7 19,14 5,8 10,18 16,31l23 51 -40 0 -20 -48c0,-1 -1,-2 -2,-4 0,-1 -2,-4 -4,-9 -4,-9 -8,-14 -11,-17 -2,-2 -6,-4 -10,-4l0 82 -33 0 0 -82c-4,0 -7,2 -10,4 -3,2 -6,8 -11,17 -2,5 -3,8 -4,9 0,1 -1,2 -2,4l-20 48 -40 0 23 -51c6,-13 11,-23 16,-30 5,-8 12,-13 19,-15 -6,-4 -10,-8 -13,-12 -2,-4 -4,-10 -6,-16 -4,-12 -7,-20 -9,-24 -2,-4 -5,-7 -8,-9 -3,-2 -8,-3 -16,-3 -1,0 -2,0 -4,0l0 -28c2,0 4,0 5,0 16,0 28,3 35,8 7,6 14,18 20,37 5,15 9,25 12,29 3,4 7,6 13,7l0 -80 33 0zm107 187l0 -187 125 0 0 32 -91 0 0 41 84 0 0 32 -84 0 0 51 94 0 0 31 -128 0zm157 0l0 -187 34 0 0 74 66 0 0 -74 34 0 0 187 -34 0 0 -82 -66 0 0 82 -34 0zm170 -187l32 0 0 125 68 -125 34 0 0 187 -32 0 0 -122 -68 122 -34 0 0 -187zm168 187l0 -187 125 0 0 32 -91 0 0 41 85 0 0 32 -85 0 0 51 94 0 0 31 -128 0zm301 -187l116 0 0 156 15 0 0 72 -28 0 0 -41 -106 0 0 41 -28 0 0 -72 14 0c7,-16 11,-35 14,-56 2,-21 3,-48 3,-80l0 -20zm32 32c0,56 -4,98 -14,124l64 0 0 -124 -50 0zm134 -32l118 0 0 187 -34 0 0 -155 -51 0 0 80c0,23 -1,39 -2,48 -1,9 -5,16 -10,21 -5,5 -14,7 -25,7 -4,0 -11,0 -22,-1l0 -29 8 0c7,0 12,-1 14,-3 3,-2 4,-8 4,-16l0 -32 0 -107zm253 187l0 -78 -7 0c-10,0 -18,2 -22,6 -5,3 -12,14 -23,32l-24 40 -41 0 21 -36c8,-15 14,-25 19,-31 5,-5 11,-11 18,-15 -16,-3 -27,-9 -34,-18 -7,-10 -10,-21 -10,-34 0,-12 2,-22 7,-30 6,-9 12,-15 21,-18 8,-3 21,-5 38,-5l71 0 0 187 -34 0zm0 -155l-26 0c-14,0 -23,0 -27,1 -4,1 -8,3 -11,7 -3,4 -4,9 -4,15 0,7 1,12 4,16 3,4 7,6 11,7 5,1 14,1 28,1l25 0 0 -47zm135 -32l114 0 0 32 -80 0 0 155 -34 0 0 -187zm122 95c0,-19 3,-35 8,-48 4,-10 9,-18 15,-26 7,-7 14,-13 22,-16 11,-5 23,-8 36,-8 25,0 45,9 60,26 15,17 22,41 22,71 0,30 -7,54 -22,71 -15,17 -35,25 -59,25 -25,0 -45,-8 -60,-25 -15,-17 -22,-40 -22,-70zm35 -1c0,21 4,37 13,48 9,11 20,16 34,16 13,0 24,-5 33,-16 9,-11 13,-27 13,-49 0,-21 -4,-37 -13,-48 -8,-10 -19,-16 -33,-16 -14,0 -26,6 -34,16 -9,11 -13,27 -13,49zm262 24l33 12c-5,20 -13,36 -25,46 -12,9 -27,14 -45,14 -22,0 -40,-8 -55,-25 -14,-17 -21,-40 -21,-70 0,-31 7,-55 21,-72 15,-17 34,-26 57,-26 21,0 38,7 50,20 8,8 14,20 18,35l-34 9c-2,-10 -6,-18 -12,-23 -7,-6 -14,-9 -23,-9 -13,0 -23,5 -31,15 -7,10 -11,26 -11,49 0,23 3,40 11,50 8,10 18,15 30,15 9,0 17,-3 23,-9 7,-7 11,-17 14,-31zm94 69l0 -155 -50 0 0 -32 134 0 0 32 -50 0 0 155 -34 0zm106 -187l32 0 0 125 68 -125 34 0 0 187 -32 0 0 -122 -68 122 -34 0 0 -187zm169 187l0 -187 34 0 0 74 66 0 0 -74 34 0 0 187 -34 0 0 -82 -66 0 0 82 -34 0zm170 -187l32 0 0 125 68 -125 34 0 0 187 -32 0 0 -122 -68 122 -34 0 0 -187zm169 0l34 0 0 156 66 0 0 -156 34 0 0 156 14 0 0 72 -29 0 0 -41 -119 0 0 -187zm237 0l31 0 0 125 69 -125 33 0 0 187 -31 0 0 -122 -68 122 -34 0 0 -187zm233 187l0 -187 55 0c21,0 34,1 40,3 10,3 18,9 24,18 7,10 10,22 10,37 0,11 -2,21 -5,29 -4,8 -9,14 -15,18 -5,5 -11,8 -17,9 -8,2 -20,3 -36,3l-22 0 0 70 -34 0zm34 -155l0 53 19 0c13,0 22,-1 27,-3 4,-2 8,-5 10,-9 3,-4 4,-9 4,-15 0,-6 -2,-12 -5,-17 -4,-4 -8,-7 -14,-8 -4,-1 -12,-1 -24,-1l-17 0zm123 155l0 -187 125 0 0 32 -91 0 0 41 84 0 0 32 -84 0 0 51 94 0 0 31 -128 0zm264 -69l33 12c-5,20 -13,36 -25,46 -12,9 -26,14 -45,14 -22,0 -40,-8 -55,-25 -14,-17 -21,-40 -21,-70 0,-31 7,-55 22,-72 14,-17 33,-26 57,-26 20,0 37,7 50,20 7,8 13,20 17,35l-34 9c-2,-10 -6,-18 -12,-23 -7,-6 -14,-9 -23,-9 -13,0 -23,5 -31,15 -7,10 -11,26 -11,49 0,23 4,40 11,50 8,10 18,15 30,15 9,0 17,-3 23,-9 7,-7 12,-17 14,-31zm94 69l0 -155 -49 0 0 -32 133 0 0 32 -50 0 0 155 -34 0zm93 -92c0,-19 3,-35 8,-48 4,-10 9,-18 16,-26 6,-7 14,-13 22,-16 10,-5 22,-8 36,-8 25,0 44,9 59,26 15,17 23,41 23,71 0,30 -8,54 -23,71 -14,17 -34,25 -59,25 -25,0 -45,-8 -59,-25 -15,-17 -23,-40 -23,-70zm35 -1c0,21 5,37 14,48 8,11 20,16 33,16 14,0 25,-5 33,-16 9,-11 13,-27 13,-49 0,-21 -4,-37 -12,-48 -9,-10 -20,-16 -34,-16 -14,0 -25,6 -34,16 -8,11 -13,27 -13,49zm155 93l0 -187 55 0c20,0 34,1 40,3 10,3 18,9 24,18 7,10 10,22 10,37 0,11 -2,21 -6,29 -4,8 -8,14 -14,18 -6,5 -12,8 -18,9 -8,2 -19,3 -35,3l-22 0 0 70 -34 0zm34 -155l0 53 19 0c13,0 22,-1 26,-3 5,-2 8,-5 11,-9 3,-4 4,-9 4,-15 0,-6 -2,-12 -6,-17 -3,-4 -8,-7 -13,-8 -4,-1 -12,-1 -25,-1l-16 0zm254 155l-37 0 -15 -42 -67 0 -14 42 -36 0 66 -187 35 0 68 187zm-63 -74l-23 -69 -23 69 46 0zm81 74l0 -187 34 0 0 74 66 0 0 -74 34 0 0 187 -34 0 0 -82 -66 0 0 82 -34 0zm163 -92c0,-19 2,-35 7,-48 4,-10 9,-18 16,-26 7,-7 14,-13 22,-16 10,-5 22,-8 36,-8 25,0 44,9 59,26 15,17 23,41 23,71 0,30 -8,54 -22,71 -15,17 -35,25 -60,25 -25,0 -45,-8 -59,-25 -15,-17 -22,-40 -22,-70zm35 -1c0,21 4,37 13,48 9,11 20,16 33,16 14,0 25,-5 34,-16 8,-11 13,-27 13,-49 0,-21 -5,-37 -13,-48 -9,-10 -20,-16 -34,-16 -14,0 -25,6 -34,16 -8,11 -12,27 -12,49zm154 -94l67 0c14,0 24,1 30,2 7,1 13,4 18,8 5,4 9,9 13,16 3,6 5,13 5,21 0,9 -2,17 -6,24 -5,8 -10,13 -18,17 11,3 18,9 24,17 5,8 8,17 8,28 0,8 -2,17 -5,25 -4,8 -9,14 -15,19 -6,5 -13,8 -23,9 -5,1 -19,1 -40,1l-58 0 0 -187zm34 31l0 44 23 0c13,0 21,-1 24,-1 6,-1 11,-3 14,-7 3,-3 5,-8 5,-14 0,-6 -2,-11 -4,-14 -3,-4 -8,-6 -13,-7 -4,0 -13,-1 -29,-1l-20 0zm0 75l0 50 32 0c12,0 20,-1 23,-1 5,-1 9,-4 12,-8 3,-4 5,-9 5,-16 0,-5 -1,-10 -4,-14 -2,-4 -6,-7 -10,-9 -5,-1 -15,-2 -30,-2l-28 0z"/>
  <path class="fil3 str1" d="M15838 8422c47,-53 270,-263 337,-229l22 11 20 16c25,20 40,-36 12,-68 -19,-22 -47,-37 -60,-46 -159,-110 -190,-58 -149,-250 11,-51 78,-32 82,-60 5,-29 -75,-20 -102,-13 -195,45 -156,298 -346,254 -35,-8 -53,-48 -53,-48 -42,1 -37,34 -31,52 7,22 28,47 74,80 46,32 100,50 123,85 43,68 34,139 -10,202 -79,53 -4,85 39,54 30,-21 25,-21 42,-40z"/>
  <path class="fil4" d="M12614 11699l157 0 0 198 -40 0 0 -164 -77 0 0 164 -40 0 0 -198zm198 198l0 -198 64 0c24,0 40,1 47,3 11,3 21,10 28,20 8,10 12,22 12,38 0,12 -2,22 -7,31 -4,8 -10,14 -17,19 -6,5 -13,8 -20,9 -10,2 -24,3 -42,3l-25 0 0 75 -40 0zm40 -164l0 56 21 0c16,0 26,-1 32,-3 5,-2 9,-6 12,-10 3,-4 5,-10 5,-15 0,-8 -2,-13 -7,-18 -4,-5 -9,-8 -16,-9 -4,-1 -14,-1 -28,-1l-19 0zm102 164l0 -38 38 0 0 38 -38 0zm203 -73l38 12c-6,22 -15,38 -29,48 -14,11 -31,16 -53,16 -26,0 -47,-9 -64,-27 -17,-18 -25,-42 -25,-73 0,-33 8,-58 25,-77 17,-18 39,-27 67,-27 24,0 44,7 59,22 9,8 15,20 20,36l-40 9c-2,-10 -7,-18 -14,-24 -8,-6 -17,-9 -27,-9 -15,0 -27,5 -36,16 -9,10 -13,27 -13,51 0,25 4,42 13,53 9,11 21,16 35,16 11,0 20,-3 27,-10 8,-7 13,-17 17,-32zm58 -25c0,-20 3,-37 9,-50 4,-10 10,-19 18,-27 8,-8 16,-14 25,-18 13,-5 27,-8 43,-8 29,0 52,9 70,27 17,18 26,43 26,75 0,32 -9,57 -26,75 -18,18 -41,27 -70,27 -29,0 -52,-9 -70,-27 -17,-18 -25,-42 -25,-74zm41 -1c0,22 5,39 15,51 10,11 23,17 39,17 16,0 29,-6 39,-17 10,-12 16,-29 16,-52 0,-22 -5,-39 -15,-50 -10,-11 -23,-17 -40,-17 -16,0 -29,6 -39,17 -10,11 -15,28 -15,51zm181 -99l40 0 0 84c9,-1 15,-3 18,-6 3,-4 8,-14 15,-31 8,-21 16,-35 25,-40 8,-5 21,-8 40,-8 0,0 2,0 5,0l0 30 -5 -1c-8,0 -14,1 -18,3 -4,2 -7,6 -9,10 -3,4 -6,12 -11,25 -2,7 -5,13 -8,17 -2,5 -7,9 -15,13 9,3 17,8 22,15 6,8 13,19 19,33l27 54 -46 0 -24 -51c0,-1 -1,-2 -2,-5 -1,0 -2,-3 -5,-9 -5,-9 -10,-16 -13,-18 -3,-2 -8,-4 -15,-4l0 87 -40 0 0 -198zm160 100c0,-20 3,-37 9,-50 4,-10 10,-19 18,-27 8,-8 16,-14 26,-18 12,-5 26,-8 42,-8 29,0 52,9 70,27 17,18 26,43 26,75 0,32 -9,57 -26,75 -17,18 -40,27 -69,27 -30,0 -53,-9 -70,-27 -18,-18 -26,-42 -26,-74zm41 -1c0,22 5,39 15,51 11,11 24,17 39,17 16,0 29,-6 40,-17 10,-12 15,-29 15,-52 0,-22 -5,-39 -15,-50 -10,-11 -23,-17 -40,-17 -16,0 -29,6 -39,17 -10,11 -15,28 -15,51zm188 -99l138 0 0 198 -39 0 0 -164 -60 0 0 84c0,24 -1,41 -2,50 -2,10 -6,17 -12,23 -6,5 -16,8 -29,8 -5,0 -13,-1 -26,-2l0 -30 9 0c9,0 14,-1 17,-4 3,-2 4,-7 4,-16l0 -34 0 -113zm171 100c0,-20 3,-37 9,-50 5,-10 11,-19 19,-27 7,-8 16,-14 25,-18 12,-5 27,-8 43,-8 29,0 52,9 69,27 18,18 26,43 26,75 0,32 -8,57 -26,75 -17,18 -40,27 -69,27 -29,0 -53,-9 -70,-27 -17,-18 -26,-42 -26,-74zm41 -1c0,22 5,39 16,51 10,11 23,17 39,17 16,0 29,-6 39,-17 10,-12 15,-29 15,-52 0,-22 -5,-39 -15,-50 -9,-11 -23,-17 -39,-17 -16,0 -30,6 -40,17 -10,11 -15,28 -15,51zm182 -99l78 0c16,0 28,1 35,2 8,2 15,4 21,9 6,4 11,9 15,16 4,7 6,15 6,23 0,9 -2,18 -7,26 -5,7 -12,13 -21,17 12,3 22,9 28,18 6,8 10,18 10,29 0,9 -2,18 -7,27 -4,8 -9,15 -17,20 -7,5 -16,8 -26,9 -7,1 -23,1 -48,2l-67 0 0 -198zm39 33l0 46 26 0c16,0 26,0 29,-1 7,-1 13,-3 16,-7 4,-4 6,-9 6,-15 0,-6 -1,-11 -5,-15 -3,-4 -8,-6 -15,-7 -4,0 -15,-1 -34,-1l-23 0zm0 79l0 52 37 0c15,0 24,0 28,-1 5,-1 10,-4 14,-8 4,-4 6,-9 6,-16 0,-6 -2,-11 -5,-15 -3,-5 -7,-8 -12,-10 -6,-1 -17,-2 -35,-2l-33 0zm323 86l-43 0 -17 -45 -79 0 -16 45 -42 0 76 -198 42 0 79 198zm-73 -78l-27 -74 -27 74 54 0zm93 40l38 0 0 27c0,11 -1,19 -3,26 -2,6 -5,12 -11,17 -5,5 -11,9 -19,12l-8 -16c8,-3 13,-6 16,-10 4,-5 5,-11 6,-18l-19 0 0 -38zm70 -122l0 -35 129 0 0 28c-11,10 -22,25 -33,45 -11,19 -19,40 -25,62 -6,22 -9,42 -8,60l-37 0c1,-28 6,-55 17,-84 11,-28 25,-53 42,-76l-85 0zm151 107l37 -4c1,9 4,16 9,21 5,5 12,8 19,8 8,0 14,-3 20,-9 5,-6 8,-14 8,-24 0,-10 -3,-17 -8,-23 -5,-5 -11,-8 -19,-8 -5,0 -10,1 -17,3l4 -31c10,0 18,-2 23,-7 6,-4 9,-11 9,-18 0,-7 -2,-12 -6,-16 -4,-4 -10,-6 -16,-6 -7,0 -12,2 -17,6 -4,5 -7,11 -8,20l-35 -6c3,-12 6,-21 11,-28 5,-8 12,-13 21,-17 8,-4 18,-6 29,-6 19,0 33,6 45,17 9,10 13,21 13,33 0,18 -9,31 -28,42 11,2 20,7 27,16 7,8 10,18 10,30 0,18 -6,32 -19,45 -12,12 -28,18 -47,18 -18,0 -32,-5 -44,-15 -12,-11 -19,-24 -21,-41zm169 -52l0 -38 38 0 0 38 -38 0zm0 67l38 0 0 27c0,11 -1,19 -3,26 -2,6 -5,12 -11,17 -5,5 -12,9 -20,12l-7 -16c8,-3 13,-6 16,-11 4,-4 5,-10 5,-17l-18 0 0 -38zm86 38l0 -198 64 0c24,0 40,1 47,3 11,3 21,10 28,20 8,10 12,22 12,38 0,12 -2,22 -7,31 -4,8 -10,14 -16,19 -7,5 -14,8 -21,9 -10,2 -23,3 -41,3l-26 0 0 75 -40 0zm40 -164l0 56 21 0c16,0 27,-1 32,-3 5,-2 9,-6 12,-10 3,-4 5,-10 5,-15 0,-8 -2,-13 -6,-18 -5,-5 -10,-8 -16,-9 -5,-1 -15,-1 -29,-1l-19 0zm144 164l0 -198 146 0 0 34 -107 0 0 44 99 0 0 33 -99 0 0 53 110 0 0 34 -149 0zm183 0l0 -198 64 0c24,0 40,1 47,3 12,3 21,10 29,20 7,10 11,22 11,38 0,12 -2,22 -6,31 -5,8 -10,14 -17,19 -7,5 -14,8 -21,9 -9,2 -23,3 -41,3l-26 0 0 75 -40 0zm40 -164l0 56 22 0c15,0 26,-1 31,-3 5,-2 10,-6 13,-10 3,-4 4,-10 4,-15 0,-8 -2,-13 -6,-18 -4,-5 -10,-8 -16,-9 -5,-1 -14,-1 -29,-1l-19 0zm143 164l0 -198 39 0 0 198 -39 0zm122 0l0 -164 -59 0 0 -34 157 0 0 34 -59 0 0 164 -39 0zm281 0l-43 0 -18 -45 -78 0 -17 45 -42 0 77 -198 42 0 79 198zm-73 -78l-28 -74 -26 74 54 0zm94 78l0 -198 84 0c21,0 36,2 46,6 9,3 17,10 23,19 5,9 8,19 8,31 0,15 -4,27 -13,36 -8,10 -22,16 -39,19 9,5 16,10 22,16 5,6 13,17 22,32l24 39 -47 0 -29 -43c-10,-16 -17,-25 -21,-29 -4,-4 -8,-7 -12,-9 -4,-1 -11,-2 -20,-2l-8 0 0 83 -40 0zm40 -114l29 0c19,0 31,-1 36,-3 5,-1 9,-4 11,-8 3,-4 4,-9 4,-15 0,-6 -2,-12 -5,-16 -4,-4 -9,-6 -15,-8 -3,0 -13,0 -29,0l-31 0 0 50zm159 114l0 -198 39 0 81 132 0 -132 37 0 0 198 -40 0 -80 -129 0 129 -37 0zm198 -198l73 0c17,0 29,2 38,4 11,4 21,10 29,18 9,9 15,20 19,32 4,13 7,28 7,47 0,16 -2,30 -6,42 -5,14 -12,26 -22,35 -6,6 -16,12 -27,15 -9,3 -21,5 -36,5l-75 0 0 -198zm40 34l0 130 30 0c11,0 19,0 24,-2 6,-1 12,-4 16,-8 4,-4 8,-10 10,-19 3,-9 5,-21 5,-36 0,-15 -2,-27 -5,-35 -2,-8 -6,-14 -11,-19 -5,-5 -11,-8 -18,-9 -6,-2 -17,-2 -33,-2l-18 0zm159 164l0 -38 38 0 0 38 -38 0zm77 0l0 -198 84 0c21,0 36,2 46,6 9,3 17,10 23,19 5,9 8,19 8,31 0,15 -4,27 -13,36 -8,10 -22,16 -39,19 9,5 16,10 22,16 5,6 13,17 22,32l24 39 -47 0 -29 -43c-10,-16 -17,-25 -21,-29 -4,-4 -8,-7 -12,-9 -4,-1 -11,-2 -20,-2l-8 0 0 83 -40 0zm40 -114l29 0c19,0 31,-1 36,-3 5,-1 8,-4 11,-8 3,-4 4,-9 4,-15 0,-6 -2,-12 -5,-16 -4,-4 -9,-6 -15,-8 -3,0 -13,0 -29,0l-31 0 0 50zm158 -84l40 0 0 107c0,17 1,28 2,33 1,8 6,15 12,20 6,4 15,7 26,7 11,0 20,-2 26,-7 5,-5 9,-10 10,-17 1,-7 2,-18 2,-33l0 -110 40 0 0 104c0,24 -1,40 -4,50 -2,10 -6,18 -12,25 -5,7 -13,12 -23,16 -9,4 -22,6 -38,6 -18,0 -33,-2 -42,-7 -10,-4 -18,-10 -23,-17 -6,-6 -10,-14 -12,-21 -2,-12 -4,-28 -4,-50l0 -106zm205 93l0 -38 38 0 0 38 -38 0zm0 67l38 0 0 27c0,11 -1,19 -3,26 -1,6 -5,12 -10,17 -6,5 -12,9 -20,12l-8 -16c8,-3 13,-6 17,-11 3,-4 5,-10 5,-17l-19 0 0 -38zm129 9l0 -51 -51 0 0 -35 51 0 0 -52 35 0 0 52 51 0 0 35 -51 0 0 51 -35 0zm110 -131l0 -35 129 0 0 28c-11,10 -22,25 -33,45 -11,19 -19,40 -25,62 -6,22 -8,42 -8,60l-37 0c1,-28 6,-55 17,-84 11,-28 25,-53 43,-76l-86 0zm224 218l-26 0c-14,-21 -25,-43 -32,-65 -7,-22 -11,-44 -11,-65 0,-26 5,-50 14,-73 8,-20 17,-39 29,-56l26 0c-12,27 -21,50 -25,69 -5,19 -7,40 -7,61 0,15 1,30 4,45 2,16 6,30 11,44 3,9 9,22 17,40zm21 -104l37 -4c1,7 3,13 7,16 4,4 9,6 15,6 8,0 14,-4 20,-11 5,-7 9,-22 10,-45 -9,12 -21,17 -35,17 -16,0 -29,-6 -41,-18 -11,-12 -16,-27 -16,-47 0,-20 5,-36 17,-48 12,-12 27,-18 46,-18 20,0 36,7 49,23 13,15 19,41 19,76 0,36 -7,62 -20,78 -13,16 -31,24 -52,24 -15,0 -28,-4 -37,-12 -10,-8 -16,-21 -19,-37zm86 -83c0,-12 -3,-21 -9,-28 -5,-7 -12,-10 -19,-10 -7,0 -13,3 -17,8 -5,6 -7,15 -7,27 0,13 2,22 7,28 5,6 11,9 19,9 7,0 13,-3 18,-8 5,-6 8,-14 8,-26zm99 22c-10,-4 -17,-10 -21,-17 -5,-7 -7,-15 -7,-24 0,-14 5,-26 15,-36 11,-10 25,-14 44,-14 19,0 34,4 44,14 10,10 15,22 15,36 0,10 -2,18 -7,25 -4,7 -11,12 -20,16 11,5 19,11 25,19 6,9 9,19 9,30 0,18 -6,33 -18,44 -11,11 -27,17 -46,17 -18,0 -33,-5 -45,-14 -14,-11 -21,-26 -21,-46 0,-10 3,-20 8,-29 5,-9 14,-16 25,-21zm8 -38c0,8 2,14 6,18 4,4 10,6 17,6 7,0 13,-2 17,-6 5,-5 7,-10 7,-18 0,-7 -2,-13 -7,-17 -4,-4 -9,-6 -16,-6 -8,0 -13,2 -18,6 -4,4 -6,10 -6,17zm-4 85c0,10 3,18 8,24 6,6 12,9 20,9 8,0 15,-3 20,-9 5,-5 7,-13 7,-24 0,-9 -2,-17 -7,-22 -6,-6 -12,-9 -20,-9 -9,0 -16,4 -21,10 -4,6 -7,13 -7,21zm118 14l36 -4c1,7 3,13 7,16 4,4 9,6 15,6 8,0 14,-4 20,-11 5,-7 9,-22 10,-45 -9,12 -21,17 -35,17 -16,0 -29,-6 -40,-18 -12,-12 -17,-27 -17,-47 0,-20 6,-36 18,-48 11,-12 27,-18 45,-18 20,0 36,7 49,23 13,15 19,41 19,76 0,36 -6,62 -20,78 -13,16 -30,24 -52,24 -15,0 -28,-4 -37,-12 -10,-8 -16,-21 -18,-37zm85 -83c0,-12 -3,-21 -8,-28 -6,-7 -12,-10 -20,-10 -7,0 -13,3 -17,8 -5,6 -7,15 -7,27 0,13 2,22 7,28 5,6 12,9 19,9 7,0 14,-3 19,-8 5,-6 7,-14 7,-26zm64 187c8,-16 13,-29 16,-37 3,-9 6,-19 9,-30 2,-11 4,-21 5,-31 2,-10 2,-21 2,-31 0,-21 -2,-42 -7,-61 -4,-19 -13,-42 -25,-69l26 0c13,19 24,40 31,61 8,22 12,44 12,66 0,19 -3,39 -9,60 -7,24 -18,48 -33,72l-27 0zm95 -218l0 -35 129 0 0 28c-11,10 -22,25 -33,45 -11,19 -19,40 -25,62 -6,22 -9,42 -9,60l-36 0c1,-28 6,-55 17,-84 11,-28 25,-53 42,-76l-85 0zm217 -38c19,0 34,6 44,20 13,16 20,43 20,80 0,38 -7,64 -20,81 -10,13 -25,20 -44,20 -20,0 -35,-7 -47,-22 -12,-15 -17,-41 -17,-79 0,-37 6,-64 19,-80 11,-14 25,-20 45,-20zm0 31c-5,0 -9,1 -13,4 -3,3 -6,9 -8,16 -3,10 -4,26 -4,49 0,24 1,39 4,48 2,9 5,14 8,17 4,3 8,5 13,5 4,0 8,-2 12,-5 3,-3 6,-8 8,-15 3,-10 4,-26 4,-50 0,-23 -1,-39 -3,-47 -3,-9 -6,-15 -9,-18 -4,-3 -8,-4 -12,-4zm121 60c-10,-4 -17,-10 -21,-17 -5,-7 -7,-15 -7,-24 0,-14 5,-26 16,-36 10,-10 25,-14 43,-14 19,0 34,4 44,14 10,10 16,22 16,36 0,10 -3,18 -8,25 -4,7 -11,12 -20,16 11,5 20,11 25,19 6,9 9,19 9,30 0,18 -6,33 -18,44 -11,11 -27,17 -46,17 -18,0 -33,-5 -45,-14 -14,-11 -21,-26 -21,-46 0,-10 3,-20 8,-29 6,-9 14,-16 25,-21zm8 -38c0,8 2,14 6,18 5,4 10,6 17,6 8,0 13,-2 18,-6 4,-5 6,-10 6,-18 0,-7 -2,-13 -6,-17 -5,-4 -10,-6 -17,-6 -7,0 -13,2 -18,6 -4,4 -6,10 -6,17zm-3 85c0,10 2,18 8,24 5,6 12,9 19,9 8,0 15,-3 20,-9 5,-5 8,-13 8,-24 0,-9 -3,-17 -8,-22 -5,-6 -12,-9 -20,-9 -9,0 -16,4 -21,10 -4,6 -6,13 -6,21zm244 -89l-37 4c0,-8 -3,-13 -7,-17 -3,-3 -8,-5 -14,-5 -8,0 -15,3 -21,10 -5,8 -8,23 -10,45 10,-11 21,-16 35,-16 16,0 29,6 41,18 11,12 17,27 17,46 0,20 -6,36 -18,49 -12,12 -27,18 -46,18 -20,0 -36,-8 -49,-23 -13,-16 -19,-41 -19,-76 0,-36 7,-62 20,-78 13,-16 31,-24 52,-24 15,0 27,4 37,12 10,9 16,21 19,37zm-86 82c0,12 3,22 9,29 5,6 12,10 19,10 7,0 13,-3 18,-9 4,-5 7,-14 7,-26 0,-13 -3,-23 -8,-29 -5,-6 -11,-9 -19,-9 -7,0 -13,3 -18,9 -5,6 -8,14 -8,25zm208 67l-38 0 0 -143c-14,13 -30,23 -49,29l0 -34c10,-4 21,-10 32,-19 12,-9 20,-19 24,-31l31 0 0 198zm138 0l-38 0 0 -143c-14,13 -30,23 -49,29l0 -34c10,-4 21,-10 32,-19 12,-9 20,-19 24,-31l31 0 0 198zm55 -53l36 -4c2,9 5,16 10,21 5,5 11,8 18,8 8,0 15,-3 20,-9 5,-6 8,-14 8,-24 0,-10 -2,-17 -8,-23 -5,-5 -11,-8 -18,-8 -5,0 -11,1 -18,3l5 -31c10,0 18,-2 23,-7 5,-4 8,-11 8,-18 0,-7 -2,-12 -6,-16 -4,-4 -9,-6 -16,-6 -6,0 -12,2 -16,6 -5,5 -8,11 -9,20l-34 -6c2,-12 6,-21 11,-28 4,-8 11,-13 20,-17 9,-4 19,-6 29,-6 19,0 34,6 45,17 9,10 14,21 14,33 0,18 -10,31 -28,42 11,2 20,7 27,16 6,8 10,18 10,30 0,18 -7,32 -19,45 -13,12 -29,18 -47,18 -18,0 -33,-5 -45,-15 -11,-11 -18,-24 -20,-41z"/>
 </g>
</svg>
