<svg xmlns="http://www.w3.org/2000/svg" width="46" height="32" viewBox="0 0 46 32" fill="none"><path fill-rule="evenodd" clip-rule="evenodd" d="M.687.176a1.29 1.29 0 0 0-.518.52c-.18.341-.182.458-.159 9.104.024 8.692.026 8.76.21 9 .101.131.296.32.433.42.24.174.37.18 4.103.204l3.854.024.026 5.818c.025 5.807.026 5.819.221 6.124.388.603.427.61 3.345.61h2.614l.355-.311c.35-.307.384-.395 2.608-6.874l2.253-6.564-.024-8.684C19.984.949 19.983.88 19.798.64a2.532 2.532 0 0 0-.433-.42C19.12.042 19.053.04 10.07.022 1.204.004 1.016.007.687.176ZM26.809.12c-.361.153-.739.598-.804.948-.028.155-.04 4.153-.026 8.886.026 8.535.028 8.606.211 8.845.102.133.297.322.434.42.24.175.37.181 4.149.205l3.9.024.025 5.926.024 5.925.338.329.339.328 2.646.026c2.937.028 3.033.013 3.376-.531.096-.154 1.166-3.165 2.377-6.692L46 18.346V9.691c0-8.501-.003-8.66-.18-8.998a1.221 1.221 0 0 0-.537-.52C44.935 0 44.775-.003 36.006 0c-7.215.002-8.975.025-9.197.119Z" fill="#55828e"/></svg>